PathFileType	4	(x/y/z)	S09_BK_Cal_T01
DataRate	CameraRate	NumFrames	NumMarkers	Units	OrigDataRate	OrigDataStartFrame	OrigNumFrames
240	240	11	51	mm	240	1201	2400
Frame#	Time	Sternum			R.Acromium			L.Acromium			Top.Head			R.ASIS			L.ASIS			R.PSIS			L.PSIS			R.Great.Tro			L.Great.Tro			R.Iliac.Crest			L.Iliac.Crest			V.Sacral			R.Thigh.Upper.Post			R.Thigh.Lower.Ant			R.Thigh.Lower.Post			R.Thigh.Upper.Ant			R.Knee.Lat			R.Knee.Med			R.Shank.Upper.Post			R.Shank.Lower.Ant			R.Shank.Lower.Post			R.Shank.Upper.Ant			R.Ankle.Lat			R.Ankle.Med			R.Heel.Upper			R.Heel.Med			R.Heel.Lat			R.Toe.Lat			R.Toe.Med			R.Toe.Tip			L.Thigh.Upper.Post			L.Thigh.Lower.Ant			L.Thigh.Lower.Post			L.Thigh.Upper.Ant			L.Knee.Lat			L.Knee.Med			L.Shank.Upper.Post			L.Shank.Lower.Ant			L.Shank.Lower.Post			L.Shank.Upper.Ant			L.Ankle.Lat			L.Ankle.Med			L.Heel.Upper			L.Heel.Med			L.Heel.Lat			L.Toe.Lat			L.Toe.Med			L.Toe.Tip			Cervical.Spine			Back			
		X1	Y1	Z1	X2	Y2	Z2	X3	Y3	Z3	X4	Y4	Z4	X5	Y5	Z5	X6	Y6	Z6	X7	Y7	Z7	X8	Y8	Z8	X9	Y9	Z9	X10	Y10	Z10	X11	Y11	Z11	X12	Y12	Z12	X13	Y13	Z13	X14	Y14	Z14	X15	Y15	Z15	X16	Y16	Z16	X17	Y17	Z17	X18	Y18	Z18	X19	Y19	Z19	X20	Y20	Z20	X21	Y21	Z21	X22	Y22	Z22	X23	Y23	Z23	X24	Y24	Z24	X25	Y25	Z25	X26	Y26	Z26	X27	Y27	Z27	X28	Y28	Z28	X29	Y29	Z29	X30	Y30	Z30	X31	Y31	Z31	X32	Y32	Z32	X33	Y33	Z33	X34	Y34	Z34	X35	Y35	Z35	X36	Y36	Z36	X37	Y37	Z37	X38	Y38	Z38	X39	Y39	Z39	X40	Y40	Z40	X41	Y41	Z41	X42	Y42	Z42	X43	Y43	Z43	X44	Y44	Z44	X45	Y45	Z45	X46	Y46	Z46	X47	Y47	Z47	X48	Y48	Z48	X49	Y49	Z49	X50	Y50	Z50	X51	Y51	Z51	

1201	5	571.32	1097.2	288.43	468.5	1366.8	434.53	476.2	1363	119.1	533.79	1666.4	285.94	466.19	941.7	393.32	466.87	939.63	148.5	254.13	1004.7	315.64	260.91	1005.1	225.23	377.97	877.36	469.43	389	871.02	78.266	398.78	1037.1	432.78	391.62	1050.2	112.6	232.71	972.47	266.93	463.39	642.49	461.71	570.59	576.36	430.82	493.88	555.63	435.44	534.16	656.86	454.98	574.11	492.62	421.15	571.82	481.29	299.27	466.06	343.95	431.35	512.09	265.73	419.54	440.18	272.07	423.74	531.19	336.87	428.47	396.84	95.956	406.89	431.41	100.63	322.12	333.11	77.295	358.66	342.74	44.456	330.82	334.49	48.296	395.7	492.39	40.865	453.2	542.21	44.79	347.95	589.11	60.36	395.16	425.16	608.15	114.45	538.87	550.76	104.69	477.57	533.11	131.79	490.56	623.48	83.106	551.88	474.95	115.3	580	490.76	245.94	482.31	368.63	103.28	517.14	264.41	114.9	460.59	295.01	108.18	538.63	339.76	110.24	412.89	107.3	131.16	426.39	94.044	224.76	336.93	71.171	176.02	347.47	46.039	208.83	338.01	43.961	147.32	511.54	43.812	94.914	547.6	42.551	203.6	599.98	59.508	146.34	402.12	1423.1	286.17	312.95	1176	267.77
1202	5.0042	571.35	1097.1	288.4	468.53	1366.8	434.49	476.24	1363	119.05	533.79	1666.4	285.93	466.19	941.7	393.28	466.91	939.61	148.46	254.15	1004.7	315.58	260.94	1005.1	225.17	377.96	877.38	469.38	389.03	871.01	78.232	398.79	1037.1	432.73	391.66	1050.2	112.54	232.74	972.48	266.87	463.39	642.5	461.7	570.57	576.37	430.82	493.87	555.64	435.45	534.15	656.87	454.97	574.1	492.62	421.17	571.83	481.28	299.28	466.05	343.95	431.36	512.08	265.73	419.55	440.17	272.07	423.75	531.18	336.87	428.48	396.83	95.954	406.89	431.41	100.64	322.12	333.11	77.293	358.66	342.74	44.454	330.82	334.49	48.296	395.7	492.38	40.863	453.2	542.21	44.793	347.96	589.11	60.364	395.16	425.19	608.15	114.41	538.89	550.75	104.66	477.59	533.1	131.76	490.58	623.47	83.07	551.9	474.95	115.27	580.02	490.76	245.91	482.33	368.62	103.26	517.15	264.4	114.88	460.6	295	108.17	538.65	339.74	110.22	412.89	107.29	131.16	426.4	94.044	224.76	336.93	71.173	176.03	347.47	46.04	208.83	338.01	43.967	147.32	511.54	43.809	94.913	547.6	42.546	203.59	599.98	59.502	146.34	402.15	1423.1	286.12	312.98	1176	267.72
1203	5.0083	571.38	1097.1	288.37	468.57	1366.8	434.44	476.29	1363	119.01	533.78	1666.5	285.93	466.2	941.71	393.24	466.94	939.6	148.42	254.16	1004.7	315.51	260.97	1005.1	225.11	377.96	877.39	469.34	389.07	870.99	78.199	398.8	1037.1	432.68	391.7	1050.2	112.49	232.76	972.49	266.82	463.38	642.52	461.7	570.56	576.38	430.82	493.86	555.65	435.45	534.14	656.88	454.97	574.09	492.63	421.18	571.83	481.28	299.29	466.04	343.95	431.38	512.07	265.73	419.56	440.16	272.07	423.76	531.18	336.88	428.5	396.83	95.952	406.89	431.41	100.64	322.13	333.11	77.291	358.66	342.74	44.453	330.82	334.49	48.296	395.7	492.38	40.86	453.2	542.21	44.795	347.96	589.11	60.368	395.17	425.22	608.14	114.38	538.91	550.74	104.64	477.61	533.09	131.74	490.61	623.46	83.041	551.93	474.94	115.25	580.05	490.76	245.89	482.35	368.6	103.24	517.17	264.39	114.88	460.62	294.99	108.16	538.67	339.73	110.21	412.9	107.29	131.16	426.4	94.044	224.76	336.93	71.174	176.03	347.47	46.041	208.83	338.02	43.972	147.32	511.54	43.806	94.913	547.6	42.542	203.59	599.99	59.496	146.33	402.19	1423.1	286.07	313	1176	267.67
1204	5.0125	571.41	1097.1	288.35	468.6	1366.8	434.4	476.34	1363	118.96	533.78	1666.5	285.92	466.21	941.71	393.21	466.98	939.59	148.39	254.18	1004.7	315.45	261.01	1005.1	225.05	377.95	877.4	469.29	389.1	870.98	78.169	398.81	1037.1	432.63	391.74	1050.2	112.45	232.78	972.5	266.76	463.37	642.53	461.69	570.55	576.4	430.82	493.85	555.66	435.45	534.13	656.89	454.97	574.07	492.63	421.19	571.83	481.28	299.3	466.03	343.95	431.39	512.07	265.74	419.57	440.15	272.07	423.77	531.17	336.88	428.51	396.83	95.952	406.89	431.41	100.64	322.13	333.11	77.289	358.66	342.74	44.451	330.82	334.49	48.297	395.7	492.38	40.858	453.21	542.21	44.797	347.96	589.1	60.372	395.17	425.25	608.14	114.35	538.93	550.74	104.62	477.63	533.09	131.72	490.63	623.44	83.019	551.94	474.93	115.23	580.06	490.75	245.88	482.37	368.59	103.23	517.18	264.39	114.87	460.64	294.98	108.15	538.69	339.71	110.2	412.91	107.29	131.16	426.4	94.044	224.76	336.93	71.175	176.03	347.47	46.042	208.83	338.02	43.977	147.32	511.55	43.805	94.913	547.61	42.536	203.6	599.99	59.491	146.33	402.22	1423.1	286.02	313.02	1176	267.63
1205	5.0167	571.44	1097.1	288.33	468.64	1366.8	434.36	476.38	1363	118.91	533.77	1666.5	285.92	466.22	941.71	393.17	467.02	939.59	148.35	254.2	1004.7	315.39	261.04	1005.1	225	377.95	877.42	469.25	389.15	870.97	78.14	398.82	1037.2	432.58	391.79	1050.2	112.4	232.8	972.52	266.7	463.36	642.55	461.68	570.54	576.41	430.82	493.84	555.68	435.45	534.12	656.9	454.96	574.06	492.64	421.19	571.83	481.28	299.31	466.02	343.96	431.4	512.06	265.74	419.58	440.15	272.07	423.78	531.16	336.88	428.52	396.82	95.951	406.89	431.41	100.64	322.13	333.11	77.287	358.66	342.74	44.449	330.82	334.49	48.297	395.7	492.38	40.856	453.21	542.21	44.8	347.97	589.1	60.375	395.17	425.29	608.14	114.33	538.96	550.73	104.61	477.65	533.08	131.71	490.66	623.43	83.003	551.96	474.92	115.23	580.08	490.75	245.87	482.39	368.58	103.22	517.2	264.38	114.88	460.66	294.97	108.15	538.71	339.7	110.2	412.92	107.28	131.16	426.41	94.043	224.76	336.93	71.177	176.03	347.48	46.043	208.83	338.02	43.981	147.32	511.55	43.804	94.913	547.61	42.53	203.6	599.99	59.485	146.33	402.25	1423.1	285.97	313.04	1176	267.58
1206	5.0208	571.47	1097.1	288.3	468.67	1366.8	434.31	476.43	1363	118.87	533.77	1666.5	285.92	466.23	941.71	393.14	467.06	939.58	148.32	254.22	1004.7	315.33	261.07	1005.1	224.94	377.95	877.43	469.21	389.19	870.96	78.113	398.84	1037.2	432.53	391.83	1050.2	112.36	232.82	972.53	266.64	463.35	642.56	461.67	570.52	576.42	430.82	493.82	555.69	435.45	534.11	656.9	454.96	574.04	492.65	421.2	571.83	481.28	299.32	466.01	343.96	431.41	512.05	265.74	419.59	440.14	272.07	423.78	531.15	336.88	428.52	396.82	95.951	406.89	431.42	100.64	322.13	333.11	77.286	358.66	342.74	44.448	330.82	334.49	48.298	395.7	492.38	40.855	453.21	542.2	44.802	347.97	589.1	60.379	395.18	425.32	608.14	114.31	538.98	550.72	104.61	477.68	533.08	131.71	490.69	623.43	82.994	551.98	474.92	115.23	580.09	490.76	245.87	482.41	368.58	103.22	517.21	264.38	114.88	460.68	294.97	108.15	538.73	339.69	110.21	412.93	107.28	131.16	426.41	94.041	224.76	336.94	71.178	176.03	347.48	46.044	208.83	338.02	43.986	147.32	511.55	43.804	94.914	547.61	42.523	203.6	599.99	59.48	146.33	402.28	1423.2	285.92	313.07	1176.1	267.54
1207	5.025	571.5	1097.2	288.28	468.7	1366.8	434.27	476.47	1363	118.82	533.77	1666.5	285.92	466.24	941.72	393.11	467.1	939.58	148.29	254.23	1004.7	315.27	261.1	1005.2	224.89	377.95	877.44	469.16	389.24	870.96	78.089	398.85	1037.2	432.48	391.88	1050.1	112.32	232.84	972.55	266.59	463.34	642.58	461.66	570.51	576.43	430.82	493.81	555.7	435.45	534.1	656.91	454.95	574.03	492.66	421.2	571.83	481.28	299.33	466	343.96	431.42	512.04	265.74	419.59	440.13	272.07	423.78	531.13	336.89	428.53	396.82	95.952	406.89	431.42	100.64	322.13	333.11	77.284	358.66	342.74	44.446	330.82	334.49	48.299	395.69	492.38	40.853	453.22	542.2	44.804	347.97	589.1	60.383	395.18	425.36	608.15	114.3	539.01	550.71	104.62	477.7	533.07	131.72	490.72	623.42	82.99	552	474.92	115.24	580.1	490.76	245.88	482.43	368.57	103.23	517.23	264.37	114.89	460.7	294.96	108.16	538.76	339.68	110.22	412.93	107.28	131.16	426.41	94.039	224.77	336.94	71.18	176.03	347.48	46.046	208.83	338.02	43.99	147.32	511.55	43.805	94.915	547.61	42.516	203.6	599.99	59.475	146.34	402.31	1423.2	285.87	313.09	1176.1	267.5
1208	5.0292	571.53	1097.2	288.26	468.73	1366.8	434.23	476.52	1363	118.78	533.77	1666.5	285.92	466.25	941.72	393.08	467.14	939.58	148.26	254.25	1004.7	315.22	261.13	1005.2	224.83	377.94	877.45	469.12	389.3	870.96	78.068	398.86	1037.2	432.43	391.92	1050.2	112.28	232.86	972.56	266.53	463.33	642.59	461.64	570.49	576.44	430.81	493.8	555.71	435.44	534.09	656.92	454.94	574.01	492.66	421.2	571.83	481.29	299.33	465.99	343.96	431.42	512.03	265.75	419.6	440.12	272.07	423.79	531.12	336.89	428.53	396.82	95.954	406.89	431.42	100.64	322.13	333.11	77.283	358.66	342.74	44.445	330.82	334.49	48.3	395.69	492.38	40.852	453.22	542.2	44.807	347.97	589.1	60.387	395.18	425.39	608.15	114.3	539.03	550.7	104.64	477.73	533.07	131.73	490.75	623.41	82.992	552.02	474.91	115.25	580.1	490.76	245.9	482.45	368.57	103.24	517.24	264.37	114.91	460.72	294.96	108.17	538.78	339.68	110.24	412.94	107.29	131.17	426.41	94.037	224.77	336.94	71.181	176.03	347.48	46.047	208.83	338.03	43.994	147.32	511.55	43.807	94.917	547.61	42.509	203.61	600	59.47	146.34	402.34	1423.2	285.82	313.11	1176.1	267.45
1209	5.0333	571.55	1097.2	288.24	468.76	1366.8	434.19	476.57	1363	118.74	533.76	1666.5	285.92	466.26	941.72	393.05	467.18	939.58	148.23	254.27	1004.7	315.16	261.16	1005.2	224.78	377.94	877.47	469.09	389.35	870.96	78.048	398.88	1037.2	432.39	391.97	1050.2	112.25	232.88	972.59	266.48	463.32	642.61	461.63	570.47	576.45	430.8	493.78	555.72	435.43	534.08	656.93	454.93	574	492.67	421.2	571.82	481.29	299.33	465.98	343.97	431.42	512.03	265.75	419.6	440.11	272.07	423.79	531.11	336.9	428.53	396.81	95.956	406.89	431.42	100.64	322.13	333.11	77.282	358.66	342.74	44.443	330.82	334.49	48.301	395.69	492.38	40.852	453.22	542.2	44.809	347.97	589.1	60.39	395.18	425.43	608.16	114.3	539.06	550.7	104.66	477.75	533.07	131.75	490.78	623.41	82.998	552.03	474.91	115.28	580.11	490.77	245.92	482.48	368.56	103.25	517.26	264.37	114.93	460.73	294.96	108.18	538.8	339.67	110.26	412.95	107.29	131.17	426.42	94.035	224.77	336.94	71.183	176.03	347.48	46.048	208.83	338.03	43.997	147.32	511.56	43.809	94.919	547.61	42.502	203.61	600	59.465	146.34	402.36	1423.2	285.77	313.13	1176.1	267.41
1210	5.0375	571.58	1097.2	288.22	468.79	1366.9	434.16	476.62	1363	118.7	533.76	1666.5	285.92	466.27	941.73	393.02	467.22	939.59	148.21	254.29	1004.7	315.1	261.19	1005.2	224.73	377.94	877.48	469.05	389.41	870.96	78.031	398.9	1037.3	432.34	392.02	1050.2	112.22	232.9	972.61	266.42	463.31	642.63	461.61	570.46	576.46	430.79	493.77	555.74	435.42	534.06	656.94	454.91	573.98	492.68	421.2	571.82	481.3	299.32	465.97	343.97	431.42	512.02	265.76	419.6	440.1	272.08	423.78	531.1	336.9	428.53	396.81	95.958	406.88	431.42	100.64	322.13	333.11	77.281	358.65	342.74	44.442	330.82	334.49	48.303	395.69	492.38	40.851	453.22	542.2	44.811	347.98	589.1	60.393	395.18	425.46	608.16	114.31	539.08	550.69	104.69	477.78	533.08	131.78	490.81	623.41	83.01	552.04	474.91	115.31	580.1	490.78	245.95	482.5	368.56	103.27	517.27	264.37	114.95	460.75	294.95	108.19	538.82	339.67	110.28	412.96	107.29	131.17	426.42	94.033	224.78	336.95	71.184	176.04	347.48	46.049	208.83	338.03	44.001	147.32	511.56	43.812	94.921	547.62	42.494	203.61	600	59.461	146.35	402.39	1423.2	285.72	313.16	1176.1	267.37
1211	5.0417	571.61	1097.2	288.2	468.81	1366.9	434.12	476.66	1363	118.67	533.76	1666.6	285.93	466.28	941.73	392.99	467.26	939.6	148.19	254.31	1004.8	315.05	261.21	1005.2	224.68	377.94	877.49	469.01	389.47	870.97	78.016	398.91	1037.3	432.3	392.06	1050.2	112.19	232.92	972.63	266.37	463.3	642.64	461.59	570.44	576.48	430.78	493.76	555.75	435.41	534.05	656.95	454.9	573.97	492.69	421.19	571.81	481.31	299.32	465.96	343.98	431.42	512.01	265.76	419.6	440.09	272.08	423.78	531.09	336.91	428.53	396.81	95.961	406.88	431.42	100.64	322.13	333.11	77.281	358.65	342.73	44.441	330.82	334.49	48.304	395.69	492.38	40.851	453.22	542.2	44.812	347.98	589.1	60.396	395.18	425.5	608.17	114.32	539.11	550.69	104.72	477.8	533.08	131.81	490.85	623.4	83.025	552.06	474.91	115.34	580.1	490.78	245.99	482.52	368.56	103.3	517.29	264.37	114.97	460.77	294.95	108.21	538.84	339.67	110.31	412.97	107.3	131.18	426.42	94.031	224.78	336.95	71.186	176.04	347.48	46.05	208.83	338.03	44.004	147.32	511.56	43.816	94.924	547.62	42.486	203.62	600	59.457	146.35	402.42	1423.2	285.68	313.18	1176.2	267.34
